<svg xmlns="http://www.w3.org/2000/svg" viewBox="0 0 32 32">
  <rect width="32" height="32" fill="#2E5266" rx="6"/>
  <path d="M16 8c-3.3 0-6 2.7-6 6 0 2.2 1.2 4.1 3 5.2v3.8c0 .6.4 1 1 1h4c.6 0 1-.4 1-1v-3.8c1.8-1.1 3-3 3-5.2 0-3.3-2.7-6-6-6zm0 2c2.2 0 4 1.8 4 4s-1.8 4-4 4-4-1.8-4-4 1.8-4 4-4z" fill="#5FB3B3"/>
  <circle cx="13" cy="13" r="1.5" fill="#2E5266"/>
  <circle cx="19" cy="13" r="1.5" fill="#2E5266"/>
  <path d="M16 15.5c.8 0 1.5.7 1.5 1.5h-3c0-.8.7-1.5 1.5-1.5z" fill="#2E5266"/>
</svg>
